<svg aria-hidden="true" style="position: absolute; width: 0; height: 0; overflow: hidden;" version="1.1" xmlns="http://www.w3.org/2000/svg" xmlns:xlink="http://www.w3.org/1999/xlink">
<defs>
<symbol id="icon-facebook" viewBox="0 0 32 32">
<path d="M20.185 27.077v-8.578h2.868l0.431-3.335h-3.298v-2.129c0-0.96 0.271-1.625 1.649-1.625h1.76v-2.978c-0.849-0.086-1.711-0.135-2.572-0.123-2.535 0-4.283 1.551-4.283 4.406v2.449h-2.88v3.335h2.88v8.578h-10.585c-0.332 0-0.64-0.135-0.874-0.369s-0.357-0.542-0.357-0.862v-19.692c0-0.332 0.123-0.64 0.357-0.874s0.542-0.357 0.874-0.357h19.692c0.32 0 0.628 0.123 0.862 0.357s0.369 0.542 0.369 0.874v19.692c0 0.32-0.135 0.628-0.369 0.862s-0.542 0.369-0.862 0.369h-5.662z"></path>
<path stroke-linejoin="miter" stroke-linecap="butt" stroke-miterlimit="4" stroke-width="1.2308" d="M0.615 0.615h30.769v30.769h-30.769v-30.769z"></path>
</symbol>
<symbol id="icon-instagram" viewBox="0 0 32 32">
<path d="M16 0c4.336 0 4.88 0.016 6.592 0.096 1.696 0.064 2.864 0.336 3.872 0.736 1.056 0.4 1.952 0.96 2.848 1.84 0.816 0.8 1.44 1.776 1.84 2.832 0.4 1.024 0.672 2.192 0.752 3.888 0.064 1.712 0.096 2.256 0.096 6.608 0 4.336-0.016 4.88-0.096 6.592-0.080 1.696-0.352 2.864-0.752 3.872-0.4 1.072-1.024 2.048-1.84 2.848-0.8 0.816-1.776 1.44-2.848 1.84-1.008 0.4-2.176 0.672-3.872 0.736-1.712 0.080-2.256 0.112-6.592 0.112-4.352 0-4.896-0.016-6.608-0.112-1.696-0.064-2.864-0.336-3.872-0.736-1.072-0.4-2.048-1.024-2.848-1.84-0.816-0.8-1.44-1.776-1.84-2.848-0.4-1.008-0.672-2.176-0.752-3.872-0.064-1.712-0.080-2.256-0.080-6.592 0-4.352 0.016-4.896 0.080-6.608 0.080-1.696 0.352-2.864 0.752-3.888 0.4-1.056 1.024-2.032 1.84-2.832 0.8-0.816 1.776-1.44 2.848-1.84 1.008-0.4 2.176-0.672 3.872-0.736 1.712-0.080 2.256-0.096 6.608-0.096zM16 8c-2.128 0-4.16 0.832-5.664 2.336s-2.336 3.536-2.336 5.664c0 2.112 0.832 4.144 2.336 5.648s3.536 2.352 5.664 2.352c2.112 0 4.144-0.848 5.648-2.352s2.352-3.536 2.352-5.648c0-2.128-0.848-4.16-2.352-5.664s-3.536-2.336-5.648-2.336zM26.4 7.6c0-0.544-0.224-1.040-0.592-1.424-0.384-0.368-0.88-0.576-1.408-0.576-0.544 0-1.040 0.208-1.424 0.576-0.368 0.384-0.576 0.88-0.576 1.424 0 0.528 0.208 1.024 0.576 1.408 0.384 0.368 0.88 0.592 1.424 0.592 0.528 0 1.024-0.224 1.408-0.592 0.368-0.384 0.592-0.88 0.592-1.408zM16 11.2c1.264 0 2.48 0.496 3.392 1.392 0.896 0.912 1.408 2.128 1.408 3.408 0 1.264-0.512 2.48-1.408 3.392-0.912 0.896-2.128 1.408-3.392 1.408-1.28 0-2.496-0.512-3.408-1.408-0.896-0.912-1.392-2.128-1.392-3.392 0-1.28 0.496-2.496 1.392-3.408 0.912-0.896 2.128-1.392 3.408-1.392z"></path>
</symbol>
<symbol id="icon-twiter" viewBox="0 0 39 32">
<path d="M39.35 3.784c-1.487 0.656-3.051 1.081-4.634 1.274 1.68-1.004 2.935-2.587 3.553-4.46-1.583 0.927-3.321 1.603-5.136 1.95-1.216-1.294-2.819-2.163-4.576-2.452s-3.572 0-5.136 0.85c-1.564 0.83-2.819 2.182-3.553 3.804s-0.907 3.437-0.502 5.175c-3.205-0.174-6.352-1.004-9.21-2.452-2.877-1.467-5.406-3.495-7.434-5.985-0.714 1.216-1.081 2.626-1.081 4.055 0 2.8 1.429 5.271 3.591 6.719-1.294-0.039-2.549-0.386-3.668-1.004v0.097c0 1.854 0.656 3.668 1.834 5.117 1.178 1.429 2.819 2.433 4.653 2.8-1.197 0.328-2.433 0.367-3.649 0.135 0.521 1.603 1.525 3.012 2.877 4.016s2.973 1.564 4.673 1.603c-1.68 1.313-3.591 2.278-5.657 2.858-2.047 0.579-4.19 0.734-6.294 0.483 3.688 2.375 7.974 3.63 12.357 3.63 14.867 0 22.996-12.299 22.996-22.976 0-0.348-0.019-0.695-0.039-1.043 1.583-1.139 2.954-2.568 4.035-4.19v0z"></path>
</symbol>
<symbol id="icon-youtube" viewBox="0 0 40 32">
<path d="M39.080 4.98c0.92 3.58 0.92 11.020 0.92 11.020s0 7.44-0.92 11c-0.52 1.96-2 3.52-3.88 4.040-3.42 0.96-15.2 0.96-15.2 0.96s-11.8 0-15.22-0.96c-1.88-0.54-3.38-2.080-3.88-4.040-0.9-3.56-0.9-11-0.9-11s0-7.44 0.9-11.020c0.52-1.96 2-3.52 3.88-4.040 3.42-0.94 15.22-0.94 15.22-0.94s11.78 0 15.2 0.94c1.88 0.54 3.38 2.080 3.88 4.040zM16 23l12-7-12-7v14z"></path>
</symbol>
</defs>
</svg>
